<?xml version="1.0" encoding="utf-8"?>
<!-- Generator: Adobe Illustrator 16.0.0, SVG Export Plug-In . SVG Version: 6.00 Build 0)  -->
<!DOCTYPE svg PUBLIC "-//W3C//DTD SVG 1.1//EN" "http://www.w3.org/Graphics/SVG/1.1/DTD/svg11.dtd">
<svg version="1.1" xmlns="http://www.w3.org/2000/svg" xmlns:xlink="http://www.w3.org/1999/xlink" x="0px" y="0px"
	 width="307.46px" height="65.237px" viewBox="0 0 307.46 65.237" enable-background="new 0 0 307.46 65.237" xml:space="preserve">
<g id="Layer_4">
	<g>
		<path d="M25.779,28.384c-0.757-0.866-1.651-1.604-2.675-2.206c-2.049-1.204-4.529-1.815-7.372-1.815
			c-4.667,0-8.508,1.742-11.415,5.179C1.453,32.929,0,37.412,0,42.865c0,5.727,1.423,10.325,4.229,13.666
			c2.85,3.392,6.79,5.112,11.711,5.112c2.455,0,4.674-0.503,6.597-1.495c1.167-0.603,2.251-1.401,3.242-2.386v2.531h9.493V4.674
			h-9.493V28.384z M25.987,42.795c0,3.115-0.773,5.633-2.299,7.483c-1.5,1.818-3.412,2.702-5.844,2.702
			c-2.574,0-4.497-0.811-5.88-2.479c-1.41-1.699-2.125-4.199-2.125-7.429c0-3.205,0.743-5.722,2.209-7.479
			c1.442-1.728,3.383-2.568,5.934-2.568s4.47,0.812,5.865,2.482C25.267,37.208,25.987,39.66,25.987,42.795z"/>
		<path d="M65.273,44.975c0,2.906-0.572,4.981-1.699,6.168c-1.114,1.172-3.026,1.767-5.683,1.767c-2.656,0-4.568-0.595-5.682-1.767
			c-1.127-1.187-1.699-3.263-1.699-6.168v-19.47h-9.493v17.221c0,6.543,1.354,11.376,4.024,14.364
			c2.698,3.021,7.045,4.553,12.92,4.553c5.784,0,10.085-1.544,12.785-4.591c2.668-3.012,4.021-7.832,4.021-14.326V25.505h-9.493
			V44.975z"/>
		<path d="M102.214,24.891c-1.5-0.35-3.16-0.528-4.932-0.528c-5.661,0-10.323,1.729-13.855,5.14c-3.542,3.42-5.338,7.962-5.338,13.5
			c0,5.46,1.732,9.979,5.149,13.432c3.418,3.456,7.888,5.208,13.283,5.208c1.847,0,3.622-0.208,5.274-0.618
			c1.664-0.414,3.244-1.041,4.696-1.865l0.503-0.285V46.771l-1.773,2.263c-0.985,1.256-2.134,2.203-3.417,2.813
			c-1.289,0.613-2.787,0.924-4.453,0.924c-3.021,0-5.305-0.855-6.981-2.616c-1.667-1.749-2.512-4.226-2.512-7.36
			c0-3.044,0.818-5.404,2.502-7.214c1.666-1.79,3.839-2.659,6.645-2.659c1.63,0,3.167,0.31,4.568,0.92
			c1.397,0.61,2.641,1.506,3.694,2.665l1.726,1.898V26.813l-0.51-0.283C105.164,25.796,103.728,25.246,102.214,24.891z"/>
		<path d="M162.868,25.505h-7.889v-6.828c0-2.999,0.541-4.392,0.994-5.032c0.592-0.836,1.595-1.242,3.066-1.242
			c0.529,0,1.061,0.075,1.582,0.222c0.528,0.149,1.063,0.379,1.591,0.684l1.487,0.856V4.92l-0.717-0.207
			c-0.917-0.265-1.838-0.461-2.738-0.583c-0.896-0.121-1.779-0.182-2.624-0.182c-4.088,0-7.175,1.162-9.173,3.454
			c-1.965,2.252-2.961,5.719-2.961,10.307v7.797h-1.248h-4.496h-7.629l-12.337,12.213V4.674h-9.493v55.619h9.493V45.029
			l13.297,15.264h12.349l-17.135-19.281l11.456-11.136v4.188h5.744v26.229h9.493V34.064h7.889V25.505z"/>
		<path d="M197.324,50.475l-8.084-4.506l-0.475,0.894c-1.113,2.096-2.417,3.623-3.875,4.539c-1.446,0.909-3.306,1.37-5.527,1.37
			c-2.462,0-4.366-0.743-5.821-2.27c-1.277-1.339-2.07-3.187-2.364-5.503h26.133v-2.411c0-5.687-1.586-10.193-4.712-13.393
			c-3.134-3.206-7.528-4.832-13.063-4.832c-5.306,0-9.719,1.772-13.117,5.267c-3.389,3.487-5.108,7.986-5.108,13.373
			c0,5.594,1.666,10.146,4.952,13.529c3.293,3.391,7.759,5.111,13.273,5.111c3.83,0,7.225-0.862,10.091-2.562
			c2.862-1.698,5.288-4.302,7.212-7.739L197.324,50.475z M171.904,37.962c0.563-1.588,1.38-2.818,2.439-3.666
			c1.313-1.05,3.106-1.582,5.332-1.582c2.358,0,4.218,0.547,5.529,1.625c1.066,0.877,1.772,2.069,2.145,3.623H171.904z"/>
		<path d="M216.261,39.526c-0.684-0.283-1.626-0.639-2.878-1.089c-3.328-1.208-5.16-2.535-5.16-3.739
			c0-0.828,0.292-1.443,0.919-1.937c0.682-0.536,1.634-0.808,2.829-0.808c1.112,0,2.056,0.251,2.883,0.767
			c0.799,0.498,1.341,1.146,1.657,1.983l0.447,1.184l7.07-4.867l-0.367-0.765c-0.921-1.921-2.402-3.417-4.401-4.449
			c-1.944-1.003-4.292-1.512-6.978-1.512c-3.995,0-7.271,0.992-9.735,2.949c-2.533,2.012-3.817,4.671-3.817,7.905
			c0,2.396,0.794,4.462,2.359,6.143c1.506,1.62,4.024,3.147,7.676,4.661c0.646,0.287,1.564,0.645,2.722,1.062
			c2.042,0.759,4.476,2.006,4.476,3.637c0,1.031-0.35,1.814-1.067,2.395c-0.771,0.623-1.895,0.939-3.339,0.939
			c-1.748,0-3.178-0.372-4.249-1.106c-1.058-0.725-1.767-1.768-2.166-3.188l-0.337-1.198l-8.153,4.439l0.414,0.852
			c1.283,2.642,3.096,4.637,5.387,5.932c2.264,1.279,5.117,1.928,8.481,1.928c4.382,0,7.894-1.008,10.438-2.996
			c2.619-2.045,3.946-4.899,3.946-8.481c0-2.494-0.739-4.615-2.196-6.305C221.698,42.211,219.45,40.792,216.261,39.526z"/>
		<polygon points="239.759,25.505 239.759,13.083 230.266,13.083 230.266,25.505 224.522,25.505 224.522,34.064 230.266,34.064 
			230.266,60.293 239.759,60.293 239.759,34.064 245.503,34.064 245.503,25.505 		"/>
	</g>
</g>
<g id="Layer_1">
	<g>
		<g>
			<path fill-rule="evenodd" clip-rule="evenodd" d="M307.458,65.207c-15.469-0.001-30.937-0.021-46.405,0.031
				c-1.174,0.004-1.823-0.364-2.445-1.289c-1.925-2.856-3.493-5.966-4.454-9.282c-0.385-1.325-0.663-2.684-0.83-4.054
				c-0.363-2.998-0.238-6.07,0.506-9.001c1.024-4.038,2.959-7.75,4.976-11.371c0.568-1.02,1.15-2.031,1.742-3.037
				c1.638-2.785,3.399-5.423,5.365-7.987c0.167-0.216,1.536-2.24,1.681-2.198c-1.617-0.474-2.896-1.338-3.869-2.657
				c-1.288,0.329-2.613,0.699-3.955,1.001c-2.181,0.492-4.323,0.933-6.563,0.994c-1.305,0.035-2.596,0.172-3.311-1.151
				c-0.297-0.548-0.086-1.273,0.502-1.577c3.464-1.786,6.655-4,9.753-6.367c0.898-0.686,1.797-1.376,2.623-2.149
				c0.884-0.827,1.608-1.81,2.522-2.606c0.926-0.809,2.016-1.444,3.156-1.898c2.718-1.081,6.159-0.75,8.408,1.209
				c2.552,2.222,3.753,5.625,3.507,8.957c-0.169,2.271-0.725,4.273-1.813,6.276c-1.079,1.986-2.343,3.848-3.688,5.661
				c-1.904,2.565-4.373,5.041-3.48,8.528c0.742,2.899,2.677,5.632,4.789,7.705c2.056,2.016,4.447,3.257,6.99,4.541
				c1.46,0.737,2.921,1.474,4.395,2.188c2.91,1.41,5.932,2.604,8.805,4.088c2.289,1.183,4.584,2.589,6.598,4.202
				c0.843,0.675,1.555,1.523,2.281,2.333c1.078,1.202,2.167,3.059,2.213,4.708C307.464,61.295,307.458,65.207,307.458,65.207z
				 M269.447,6.78c0.322-0.021,0.629-0.191,0.81-0.518c0.394-0.71-0.141-1.714-1.011-1.691c-0.801,0.021-1.175,1.376-0.666,1.878
				C268.822,6.688,269.141,6.8,269.447,6.78z"/>
		</g>
	</g>
</g>
</svg>
